<svg width="14" height="14" viewBox="0 0 14 14" fill="none" xmlns="http://www.w3.org/2000/svg">
<mask id="mask0_77_90" style="mask-type:alpha" maskUnits="userSpaceOnUse" x="0" y="0" width="14" height="14">
<rect width="14" height="14" fill="#D9D9D9"/>
</mask>
<g mask="url(#mask0_77_90)">
<g clip-path="url(#clip0_77_90)">
<path fill-rule="evenodd" clip-rule="evenodd" d="M7.00028 3.85425C5.26319 3.85425 3.85449 5.26295 3.85449 7.00003C3.85449 8.73711 5.26319 10.1434 7.00028 10.1434C8.73736 10.1434 10.1437 8.73711 10.1437 7.00003C10.1437 5.26295 8.73736 3.85425 7.00028 3.85425ZM7.00028 9.0417C5.87236 9.0417 4.95861 8.12795 4.95861 7.00003C4.95861 5.87212 5.87236 4.95837 7.00028 4.95837C8.12819 4.95837 9.04194 5.87212 9.04194 7.00003C9.04194 8.12795 8.12819 9.0417 7.00028 9.0417Z" fill="#0C97FE"/>
<path fill-rule="evenodd" clip-rule="evenodd" d="M10.2695 2.99512C9.86256 2.99512 9.53418 3.3235 9.53418 3.7304C9.53418 4.13731 9.86494 4.46569 10.2695 4.46569C10.674 4.46569 11.0048 4.13493 11.0048 3.7304C11.0048 3.52814 10.9215 3.34253 10.7906 3.21166C10.6573 3.08078 10.4741 2.9975 10.2718 2.9975L10.2695 2.99512Z" fill="#0C97FE"/>
<path fill-rule="evenodd" clip-rule="evenodd" d="M13.0865 4.47528C13.0556 3.82328 12.9532 3.3783 12.8033 2.98805C12.6463 2.58591 12.4369 2.24325 12.0966 1.90297C11.7563 1.56269 11.416 1.35329 11.0115 1.19624C10.6213 1.04395 10.1763 0.941628 9.52191 0.910693C8.86991 0.882139 8.66051 0.875 6.99719 0.875C5.33388 0.875 5.12686 0.882139 4.47248 0.910693C3.82048 0.941628 3.3755 1.04395 2.98763 1.19624C2.58548 1.35329 2.24282 1.56031 1.90255 1.90297C1.56227 2.24325 1.35287 2.58591 1.19581 2.98805C1.0459 3.3783 0.941201 3.82328 0.912647 4.47528C0.884092 5.12728 0.876953 5.33668 0.876953 7C0.876953 8.66332 0.884092 8.87034 0.912647 9.52472C0.943581 10.1767 1.0459 10.6217 1.19581 11.0119C1.35287 11.4141 1.56227 11.7568 1.90255 12.097C2.24282 12.4373 2.58548 12.6491 2.98763 12.8038C3.37788 12.9537 3.82285 13.0584 4.47486 13.0869C5.12686 13.1179 5.33626 13.125 6.99957 13.125C8.66289 13.125 8.87229 13.1179 9.52429 13.0869C10.1763 13.0584 10.6213 12.9537 11.0115 12.8038C11.4137 12.6467 11.7563 12.4373 12.0966 12.097C12.4369 11.7568 12.6463 11.4141 12.8033 11.0119C12.9532 10.6217 13.0579 10.1767 13.0865 9.52472C13.1151 8.87272 13.1222 8.66332 13.1222 7C13.1222 5.33668 13.1151 5.12728 13.0865 4.47528ZM11.9848 9.47237C11.9562 10.0696 11.8586 10.3933 11.7754 10.6098C11.6635 10.8953 11.5303 11.1 11.3161 11.3142C11.1019 11.5283 10.8997 11.6616 10.6118 11.771C10.3952 11.8567 10.0716 11.9543 9.47432 11.9828C8.82946 12.0114 8.63434 12.0185 6.99957 12.0185C5.36481 12.0185 5.16969 12.0114 4.52483 11.9828C3.92756 11.9543 3.60394 11.8543 3.38739 11.771C3.10185 11.6592 2.8972 11.5283 2.68304 11.3142C2.46888 11.1 2.33801 10.8953 2.22617 10.6098C2.14288 10.3933 2.04294 10.072 2.01676 9.47475C1.98583 8.82989 1.98107 8.63476 1.98107 7C1.98107 5.36524 1.98583 5.17011 2.01676 4.52525C2.04294 3.92798 2.14288 3.60436 2.22617 3.38782C2.33801 3.10227 2.46888 2.89763 2.68304 2.68347C2.89958 2.46931 3.10185 2.33605 3.38739 2.22421C3.60394 2.14093 3.92756 2.04099 4.52483 2.01481C5.09116 1.98864 5.3077 1.9815 6.44989 1.97912C6.61171 1.97912 6.79493 1.9815 6.99957 1.9815C8.63434 1.9815 8.82946 1.98626 9.47432 2.01481C10.0716 2.04337 10.3952 2.14331 10.6118 2.22659C10.8973 2.33605 11.1019 2.46931 11.3161 2.68347C11.5303 2.89763 11.6635 3.10227 11.7754 3.38782C11.8586 3.60436 11.9586 3.9256 11.9848 4.52287C12.0133 5.17011 12.0205 5.36286 12.0205 6.99762C12.0205 8.63238 12.0133 8.82513 11.9848 9.47237Z" fill="#0C97FE"/>
</g>
</g>
<defs>
<clipPath id="clip0_77_90">
<rect width="12.25" height="12.25" fill="white" transform="translate(0.875 0.875)"/>
</clipPath>
</defs>
</svg>
